<svg xmlns="http://www.w3.org/2000/svg" xmlns:xlink="http://www.w3.org/1999/xlink" width="180" zoomAndPan="magnify" viewBox="0 0 135 30.000001" height="40" preserveAspectRatio="xMidYMid meet" version="1.0"><defs><g/><clipPath id="83b37f7088"><path d="M 5.082031 2.902344 L 32.660156 2.902344 L 32.660156 26.128906 L 5.082031 26.128906 Z M 5.082031 2.902344 " clip-rule="nonzero"/></clipPath><clipPath id="26c65e54da"><path d="M 6.078125 2.902344 L 33.65625 2.902344 L 33.65625 26.128906 L 6.078125 26.128906 Z M 6.078125 2.902344 " clip-rule="nonzero"/></clipPath></defs><g fill="#5e17eb" fill-opacity="1"><g transform="translate(36.36216, 22.089759)"><g><path d="M 4.625 0 L 1.546875 0 L 1.546875 -14.09375 L 8.234375 -14.09375 C 8.878906 -14.09375 9.460938 -13.984375 9.984375 -13.765625 C 10.515625 -13.546875 10.960938 -13.238281 11.328125 -12.84375 C 11.703125 -12.445312 11.988281 -11.972656 12.1875 -11.421875 C 12.394531 -10.867188 12.5 -10.257812 12.5 -9.59375 C 12.5 -8.632812 12.285156 -7.796875 11.859375 -7.078125 C 11.429688 -6.367188 10.789062 -5.851562 9.9375 -5.53125 L 12.703125 0 L 9.28125 0 L 6.828125 -5.171875 L 4.625 -5.171875 Z M 7.859375 -7.75 C 8.316406 -7.75 8.675781 -7.863281 8.9375 -8.09375 C 9.195312 -8.332031 9.328125 -8.679688 9.328125 -9.140625 L 9.328125 -10.03125 C 9.328125 -10.488281 9.195312 -10.832031 8.9375 -11.0625 C 8.675781 -11.300781 8.316406 -11.421875 7.859375 -11.421875 L 4.625 -11.421875 L 4.625 -7.75 Z M 7.859375 -7.75 "/></g></g></g><g fill="#5e17eb" fill-opacity="1"><g transform="translate(49.969129, 22.089759)"><g><path d="M 5.8125 0.25 C 5.007812 0.25 4.289062 0.117188 3.65625 -0.140625 C 3.019531 -0.410156 2.484375 -0.785156 2.046875 -1.265625 C 1.609375 -1.742188 1.28125 -2.320312 1.0625 -3 C 0.84375 -3.6875 0.734375 -4.457031 0.734375 -5.3125 C 0.734375 -6.144531 0.835938 -6.898438 1.046875 -7.578125 C 1.265625 -8.253906 1.582031 -8.832031 2 -9.3125 C 2.425781 -9.800781 2.945312 -10.175781 3.5625 -10.4375 C 4.1875 -10.707031 4.894531 -10.84375 5.6875 -10.84375 C 6.5625 -10.84375 7.3125 -10.691406 7.9375 -10.390625 C 8.5625 -10.097656 9.070312 -9.703125 9.46875 -9.203125 C 9.875 -8.703125 10.164062 -8.125 10.34375 -7.46875 C 10.53125 -6.820312 10.625 -6.144531 10.625 -5.4375 L 10.625 -4.546875 L 3.8125 -4.546875 L 3.8125 -4.375 C 3.8125 -3.675781 4 -3.117188 4.375 -2.703125 C 4.757812 -2.296875 5.351562 -2.09375 6.15625 -2.09375 C 6.769531 -2.09375 7.269531 -2.21875 7.65625 -2.46875 C 8.050781 -2.71875 8.421875 -3.019531 8.765625 -3.375 L 10.25 -1.515625 C 9.78125 -0.960938 9.164062 -0.53125 8.40625 -0.21875 C 7.644531 0.09375 6.78125 0.25 5.8125 0.25 Z M 5.75 -8.640625 C 5.144531 -8.640625 4.671875 -8.441406 4.328125 -8.046875 C 3.984375 -7.648438 3.8125 -7.117188 3.8125 -6.453125 L 3.8125 -6.296875 L 7.53125 -6.296875 L 7.53125 -6.484375 C 7.53125 -7.128906 7.382812 -7.648438 7.09375 -8.046875 C 6.800781 -8.441406 6.351562 -8.640625 5.75 -8.640625 Z M 5.75 -8.640625 "/></g></g></g><g fill="#5e17eb" fill-opacity="1"><g transform="translate(61.314989, 22.089759)"><g><path d="M 1.921875 -8.28125 L 0.421875 -8.28125 L 0.421875 -10.59375 L 1.921875 -10.59375 L 1.921875 -11.84375 C 1.921875 -12.875 2.1875 -13.644531 2.71875 -14.15625 C 3.257812 -14.675781 4.050781 -14.9375 5.09375 -14.9375 L 7.03125 -14.9375 L 7.03125 -12.625 L 4.90625 -12.625 L 4.90625 -10.59375 L 7.03125 -10.59375 L 7.03125 -8.28125 L 4.90625 -8.28125 L 4.90625 0 L 1.921875 0 Z M 1.921875 -8.28125 "/></g></g></g><g fill="#5e17eb" fill-opacity="1"><g transform="translate(68.602989, 22.089759)"><g><path d="M 2.890625 -11.734375 C 2.285156 -11.734375 1.84375 -11.867188 1.5625 -12.140625 C 1.289062 -12.421875 1.15625 -12.773438 1.15625 -13.203125 L 1.15625 -13.640625 C 1.15625 -14.078125 1.289062 -14.429688 1.5625 -14.703125 C 1.84375 -14.984375 2.285156 -15.125 2.890625 -15.125 C 3.492188 -15.125 3.929688 -14.984375 4.203125 -14.703125 C 4.484375 -14.429688 4.625 -14.078125 4.625 -13.640625 L 4.625 -13.203125 C 4.625 -12.773438 4.484375 -12.421875 4.203125 -12.140625 C 3.929688 -11.867188 3.492188 -11.734375 2.890625 -11.734375 Z M 1.390625 -10.59375 L 4.375 -10.59375 L 4.375 0 L 1.390625 0 Z M 1.390625 -10.59375 "/></g></g></g><g fill="#5e17eb" fill-opacity="1"><g transform="translate(74.376864, 22.089759)"><g><path d="M 1.390625 0 L 1.390625 -10.59375 L 4.375 -10.59375 L 4.375 -8.796875 L 4.5 -8.796875 C 4.6875 -9.347656 5.015625 -9.828125 5.484375 -10.234375 C 5.960938 -10.640625 6.617188 -10.84375 7.453125 -10.84375 C 8.535156 -10.84375 9.359375 -10.476562 9.921875 -9.75 C 10.484375 -9.019531 10.765625 -7.984375 10.765625 -6.640625 L 10.765625 0 L 7.765625 0 L 7.765625 -6.40625 C 7.765625 -7.082031 7.65625 -7.585938 7.4375 -7.921875 C 7.226562 -8.253906 6.847656 -8.421875 6.296875 -8.421875 C 6.054688 -8.421875 5.820312 -8.390625 5.59375 -8.328125 C 5.363281 -8.265625 5.15625 -8.164062 4.96875 -8.03125 C 4.789062 -7.894531 4.644531 -7.726562 4.53125 -7.53125 C 4.425781 -7.34375 4.375 -7.117188 4.375 -6.859375 L 4.375 0 Z M 1.390625 0 "/></g></g></g><g fill="#5e17eb" fill-opacity="1"><g transform="translate(86.409129, 22.089759)"><g><path d="M 5.8125 0.25 C 5.007812 0.25 4.289062 0.117188 3.65625 -0.140625 C 3.019531 -0.410156 2.484375 -0.785156 2.046875 -1.265625 C 1.609375 -1.742188 1.28125 -2.320312 1.0625 -3 C 0.84375 -3.6875 0.734375 -4.457031 0.734375 -5.3125 C 0.734375 -6.144531 0.835938 -6.898438 1.046875 -7.578125 C 1.265625 -8.253906 1.582031 -8.832031 2 -9.3125 C 2.425781 -9.800781 2.945312 -10.175781 3.5625 -10.4375 C 4.1875 -10.707031 4.894531 -10.84375 5.6875 -10.84375 C 6.5625 -10.84375 7.3125 -10.691406 7.9375 -10.390625 C 8.5625 -10.097656 9.070312 -9.703125 9.46875 -9.203125 C 9.875 -8.703125 10.164062 -8.125 10.34375 -7.46875 C 10.53125 -6.820312 10.625 -6.144531 10.625 -5.4375 L 10.625 -4.546875 L 3.8125 -4.546875 L 3.8125 -4.375 C 3.8125 -3.675781 4 -3.117188 4.375 -2.703125 C 4.757812 -2.296875 5.351562 -2.09375 6.15625 -2.09375 C 6.769531 -2.09375 7.269531 -2.21875 7.65625 -2.46875 C 8.050781 -2.71875 8.421875 -3.019531 8.765625 -3.375 L 10.25 -1.515625 C 9.78125 -0.960938 9.164062 -0.53125 8.40625 -0.21875 C 7.644531 0.09375 6.78125 0.25 5.8125 0.25 Z M 5.75 -8.640625 C 5.144531 -8.640625 4.671875 -8.441406 4.328125 -8.046875 C 3.984375 -7.648438 3.8125 -7.117188 3.8125 -6.453125 L 3.8125 -6.296875 L 7.53125 -6.296875 L 7.53125 -6.484375 C 7.53125 -7.128906 7.382812 -7.648438 7.09375 -8.046875 C 6.800781 -8.441406 6.351562 -8.640625 5.75 -8.640625 Z M 5.75 -8.640625 "/></g></g></g><g fill="#5e17eb" fill-opacity="1"><g transform="translate(97.754988, 22.089759)"><g><path d="M 10.234375 0 L 9.21875 -3.34375 L 4.515625 -3.34375 L 3.515625 0 L 0.40625 0 L 5.046875 -14.09375 L 8.84375 -14.09375 L 13.421875 0 Z M 6.90625 -11.3125 L 6.796875 -11.3125 L 5.25 -5.953125 L 8.484375 -5.953125 Z M 6.90625 -11.3125 "/></g></g></g><g fill="#5e17eb" fill-opacity="1"><g transform="translate(111.584026, 22.089759)"><g><path d="M 1.015625 0 L 1.015625 -2.4375 L 2.828125 -2.4375 L 2.828125 -11.640625 L 1.015625 -11.640625 L 1.015625 -14.09375 L 7.71875 -14.09375 L 7.71875 -11.640625 L 5.890625 -11.640625 L 5.890625 -2.4375 L 7.71875 -2.4375 L 7.71875 0 Z M 1.015625 0 "/></g></g></g><g clip-path="url(#83b37f7088)"><path fill="#8c52ff" d="M 14.171875 3.097656 C 14.140625 2.976562 14.027344 2.90625 13.90625 2.933594 C 13.824219 2.953125 13.757812 3.019531 13.742188 3.097656 C 13.351562 4.554688 12.394531 7.242188 10.285156 8.886719 C 8.816406 10.023438 7.101562 10.8125 5.28125 11.183594 C 5.160156 11.207031 5.082031 11.324219 5.105469 11.445312 C 5.125 11.527344 5.183594 11.589844 5.261719 11.613281 C 6.742188 12.027344 9.3125 12.929688 10.617188 14.464844 C 11.648438 15.675781 12.566406 18.714844 12.964844 20.203125 C 13 20.316406 13.121094 20.390625 13.238281 20.355469 C 13.3125 20.335938 13.371094 20.273438 13.390625 20.203125 C 13.800781 18.691406 14.871094 15.570312 16.863281 14.238281 C 18.648438 13.050781 20.628906 12.457031 21.753906 12.191406 C 21.875 12.160156 21.941406 12.039062 21.910156 11.917969 C 21.890625 11.84375 21.835938 11.785156 21.765625 11.765625 C 20.414062 11.367188 17.894531 10.460938 16.863281 9.109375 C 15.261719 7.011719 14.5 4.480469 14.171875 3.097656 Z M 25.386719 15.5625 C 25.367188 15.488281 25.292969 15.445312 25.222656 15.464844 C 25.171875 15.476562 25.136719 15.515625 25.125 15.5625 C 24.886719 16.453125 24.300781 18.097656 23.007812 19.097656 C 22.109375 19.796875 21.0625 20.273438 19.945312 20.5 C 19.871094 20.511719 19.824219 20.585938 19.84375 20.65625 C 19.855469 20.707031 19.890625 20.746094 19.941406 20.761719 C 20.84375 21.015625 22.421875 21.558594 23.214844 22.5 C 23.84375 23.242188 24.402344 25.101562 24.652344 26.011719 C 24.671875 26.085938 24.75 26.128906 24.816406 26.109375 C 24.863281 26.097656 24.894531 26.058594 24.914062 26.011719 C 25.167969 25.089844 25.816406 23.179688 27.035156 22.367188 C 28.128906 21.640625 29.339844 21.273438 30.023438 21.113281 C 30.097656 21.09375 30.140625 21.019531 30.121094 20.949219 C 30.109375 20.898438 30.074219 20.863281 30.03125 20.851562 C 29.199219 20.601562 27.667969 20.054688 27.035156 19.226562 C 26.054688 17.957031 25.585938 16.410156 25.386719 15.5625 Z M 29.820312 5.421875 C 29.808594 5.375 29.757812 5.34375 29.710938 5.355469 C 29.679688 5.359375 29.65625 5.386719 29.644531 5.421875 C 29.484375 6.015625 29.097656 7.101562 28.234375 7.769531 C 27.640625 8.230469 26.945312 8.550781 26.203125 8.703125 C 26.15625 8.714844 26.125 8.757812 26.132812 8.804688 C 26.136719 8.84375 26.160156 8.867188 26.199219 8.871094 C 26.796875 9.042969 27.84375 9.40625 28.375 10.03125 C 28.792969 10.523438 29.164062 11.757812 29.328125 12.359375 C 29.339844 12.410156 29.386719 12.433594 29.4375 12.421875 C 29.46875 12.414062 29.492188 12.390625 29.496094 12.359375 C 29.667969 11.746094 30.097656 10.480469 30.910156 9.941406 C 31.632812 9.453125 32.4375 9.21875 32.898438 9.109375 C 32.949219 9.097656 32.980469 9.046875 32.964844 9 C 32.960938 8.96875 32.9375 8.945312 32.90625 8.933594 C 32.355469 8.769531 31.335938 8.40625 30.917969 7.855469 C 30.269531 7.011719 29.953125 5.984375 29.820312 5.421875 Z M 29.820312 5.421875 " fill-opacity="1" fill-rule="nonzero"/></g><g clip-path="url(#26c65e54da)"><path fill="#5e17eb" d="M 15.167969 3.097656 C 15.136719 2.976562 15.023438 2.90625 14.902344 2.933594 C 14.820312 2.953125 14.753906 3.019531 14.738281 3.097656 C 14.347656 4.554688 13.390625 7.242188 11.28125 8.886719 C 9.8125 10.023438 8.097656 10.8125 6.277344 11.183594 C 6.15625 11.207031 6.078125 11.324219 6.101562 11.445312 C 6.121094 11.527344 6.179688 11.589844 6.257812 11.613281 C 7.738281 12.027344 10.308594 12.929688 11.613281 14.464844 C 12.644531 15.675781 13.5625 18.714844 13.960938 20.203125 C 13.996094 20.316406 14.117188 20.390625 14.234375 20.355469 C 14.308594 20.335938 14.367188 20.273438 14.386719 20.203125 C 14.796875 18.691406 15.867188 15.570312 17.859375 14.238281 C 19.644531 13.050781 21.628906 12.457031 22.75 12.191406 C 22.871094 12.160156 22.9375 12.039062 22.90625 11.917969 C 22.886719 11.84375 22.832031 11.785156 22.761719 11.765625 C 21.410156 11.367188 18.890625 10.460938 17.859375 9.109375 C 16.257812 7.011719 15.496094 4.480469 15.167969 3.097656 Z M 26.382812 15.5625 C 26.363281 15.488281 26.289062 15.445312 26.21875 15.464844 C 26.167969 15.476562 26.132812 15.515625 26.121094 15.5625 C 25.882812 16.453125 25.296875 18.097656 24.003906 19.097656 C 23.105469 19.796875 22.058594 20.273438 20.941406 20.5 C 20.867188 20.511719 20.820312 20.585938 20.839844 20.65625 C 20.851562 20.707031 20.886719 20.746094 20.9375 20.761719 C 21.839844 21.015625 23.417969 21.558594 24.210938 22.5 C 24.839844 23.242188 25.398438 25.101562 25.648438 26.011719 C 25.667969 26.085938 25.746094 26.128906 25.8125 26.109375 C 25.859375 26.097656 25.890625 26.058594 25.910156 26.011719 C 26.164062 25.089844 26.8125 23.179688 28.03125 22.367188 C 29.125 21.640625 30.335938 21.273438 31.019531 21.113281 C 31.09375 21.09375 31.136719 21.019531 31.117188 20.949219 C 31.105469 20.898438 31.070312 20.863281 31.027344 20.851562 C 30.195312 20.601562 28.664062 20.054688 28.03125 19.226562 C 27.050781 17.957031 26.582031 16.410156 26.382812 15.5625 Z M 30.816406 5.421875 C 30.804688 5.375 30.753906 5.34375 30.707031 5.355469 C 30.675781 5.359375 30.652344 5.386719 30.640625 5.421875 C 30.480469 6.015625 30.09375 7.101562 29.230469 7.769531 C 28.636719 8.230469 27.941406 8.550781 27.199219 8.703125 C 27.152344 8.714844 27.121094 8.757812 27.128906 8.804688 C 27.132812 8.84375 27.15625 8.867188 27.195312 8.871094 C 27.792969 9.042969 28.839844 9.40625 29.371094 10.03125 C 29.789062 10.523438 30.160156 11.757812 30.324219 12.359375 C 30.335938 12.410156 30.382812 12.433594 30.433594 12.421875 C 30.464844 12.414062 30.488281 12.390625 30.492188 12.359375 C 30.664062 11.746094 31.09375 10.480469 31.90625 9.941406 C 32.628906 9.453125 33.433594 9.21875 33.894531 9.109375 C 33.945312 9.097656 33.976562 9.046875 33.960938 9 C 33.957031 8.96875 33.933594 8.945312 33.902344 8.933594 C 33.351562 8.769531 32.332031 8.40625 31.914062 7.855469 C 31.265625 7.011719 30.949219 5.984375 30.816406 5.421875 Z M 30.816406 5.421875 " fill-opacity="1" fill-rule="nonzero"/></g><path stroke-linecap="butt" transform="matrix(1.514726, 0, 0, 1.514726, 36.36216, 0.883598)" fill="none" stroke-linejoin="miter" d="M 3.051519 14.000056 L 1.024543 14.000056 L 1.024543 4.695566 L 5.436955 4.695566 C 5.865044 4.695566 6.251872 4.767774 6.597437 4.909611 C 6.943003 5.051448 7.239571 5.252598 7.484562 5.51564 C 7.729552 5.778683 7.917808 6.090724 8.051909 6.456921 C 8.18343 6.820538 8.25048 7.225418 8.25048 7.666401 C 8.25048 8.298219 8.111222 8.850093 7.830128 9.319444 C 7.549033 9.791373 7.126102 10.13436 6.558755 10.348405 L 8.38458 14.000056 L 6.130666 14.000056 L 4.503412 10.585659 L 3.051519 10.585659 Z M 5.184228 8.881039 C 5.488532 8.881039 5.725786 8.803674 5.89599 8.648943 C 6.071352 8.494212 6.156454 8.264694 6.156454 7.962969 L 6.156454 7.374991 C 6.156454 7.073266 6.071352 6.843748 5.89599 6.691596 C 5.725786 6.534286 5.488532 6.456921 5.184228 6.456921 L 3.051519 6.456921 L 3.051519 8.881039 Z M 12.82278 14.159944 C 12.288959 14.159944 11.81445 14.072263 11.394098 13.899481 C 10.978903 13.726698 10.625601 13.481707 10.336769 13.167087 C 10.047938 12.852468 9.831315 12.468219 9.681742 12.014341 C 9.534747 11.560464 9.462539 11.055009 9.462539 10.495399 C 9.462539 9.943525 9.532168 9.443228 9.676584 8.994509 C 9.818421 8.545789 10.029886 8.16154 10.310981 7.841763 C 10.592075 7.521985 10.935062 7.274416 11.342521 7.101633 C 11.749979 6.926271 12.216751 6.841169 12.742836 6.841169 C 13.31792 6.841169 13.813059 6.939165 14.225675 7.137737 C 14.640869 7.331151 14.978699 7.594193 15.241741 7.924286 C 15.504784 8.2518 15.695619 8.630891 15.814246 9.064138 C 15.932873 9.492227 15.992187 9.943525 15.992187 10.412876 L 15.992187 10.998275 L 11.502409 10.998275 L 11.502409 11.106586 C 11.502409 11.5682 11.626194 11.934397 11.876343 12.207755 C 12.126491 12.478534 12.515897 12.612635 13.04714 12.612635 C 13.457177 12.612635 13.789849 12.530111 14.047734 12.365065 C 14.305619 12.202597 14.545452 12.004026 14.769812 11.774508 L 15.754932 13.002041 C 15.442892 13.365659 15.035433 13.649332 14.535137 13.853061 C 14.03484 14.05679 13.462335 14.159944 12.82278 14.159944 Z M 12.781519 8.29564 C 12.381797 8.29564 12.067177 8.427162 11.840239 8.687625 C 11.615879 8.950668 11.502409 9.298813 11.502409 9.734638 L 11.502409 9.840371 L 13.954895 9.840371 L 13.954895 9.721744 C 13.954895 9.296234 13.859478 8.950668 13.668643 8.687625 C 13.477808 8.427162 13.18124 8.29564 12.781519 8.29564 Z M 17.740647 8.535473 L 16.752947 8.535473 L 16.752947 7.003637 L 17.740647 7.003637 L 17.740647 6.175826 C 17.740647 5.500167 17.918587 4.989555 18.27189 4.649147 C 18.627771 4.30616 19.148698 4.135956 19.832094 4.135956 L 21.111203 4.135956 L 21.111203 5.667793 L 19.710888 5.667793 L 19.710888 7.003637 L 21.111203 7.003637 L 21.111203 8.535473 L 19.710888 8.535473 L 19.710888 14.000056 L 17.740647 14.000056 Z M 23.192335 6.25577 C 22.790034 6.25577 22.498624 6.162932 22.315526 5.982412 C 22.135006 5.799314 22.042168 5.564639 22.042168 5.280965 L 22.042168 4.989555 C 22.042168 4.703303 22.135006 4.471206 22.315526 4.288108 C 22.498624 4.107589 22.790034 4.01475 23.192335 4.01475 C 23.592056 4.01475 23.880887 4.107589 24.063986 4.288108 C 24.247084 4.471206 24.337344 4.703303 24.337344 4.989555 L 24.337344 5.280965 C 24.337344 5.564639 24.247084 5.799314 24.063986 5.982412 C 23.880887 6.162932 23.592056 6.25577 23.192335 6.25577 Z M 22.204635 7.003637 L 24.177455 7.003637 L 24.177455 14.000056 L 22.204635 14.000056 Z M 26.018754 14.000056 L 26.018754 7.003637 L 27.988995 7.003637 L 27.988995 8.187329 L 28.068939 8.187329 C 28.192724 7.823711 28.411926 7.506512 28.721388 7.240891 C 29.033429 6.97269 29.464097 6.841169 30.013392 6.841169 C 30.73547 6.841169 31.279607 7.081002 31.648382 7.563247 C 32.017158 8.042913 32.200256 8.726308 32.200256 9.613432 L 32.200256 14.000056 L 30.230015 14.000056 L 30.230015 9.7759 C 30.230015 9.322022 30.157807 8.986772 30.013392 8.770149 C 29.874134 8.550946 29.621407 8.442635 29.25521 8.442635 C 29.095321 8.442635 28.938012 8.463266 28.788438 8.504527 C 28.636286 8.54321 28.502186 8.605102 28.38098 8.695362 C 28.262353 8.783043 28.166935 8.893933 28.094728 9.022876 C 28.025099 9.151818 27.988995 9.298813 27.988995 9.466438 L 27.988995 14.000056 Z M 36.880868 14.159944 C 36.347046 14.159944 35.869959 14.072263 35.452186 13.899481 C 35.034412 13.726698 34.683688 13.481707 34.394857 13.167087 C 34.106026 12.852468 33.886824 12.468219 33.739829 12.014341 C 33.592835 11.560464 33.518048 11.055009 33.518048 10.495399 C 33.518048 9.943525 33.590256 9.443228 33.734672 8.994509 C 33.876509 8.545789 34.087974 8.16154 34.369069 7.841763 C 34.647585 7.521985 34.990572 7.274416 35.400609 7.101633 C 35.808067 6.926271 36.274839 6.841169 36.798345 6.841169 C 37.376007 6.841169 37.871147 6.939165 38.283762 7.137737 C 38.696378 7.331151 39.036787 7.594193 39.29725 7.924286 C 39.560293 8.2518 39.751128 8.630891 39.872334 9.064138 C 39.990961 9.492227 40.050274 9.943525 40.050274 10.412876 L 40.050274 10.998275 L 35.557918 10.998275 L 35.557918 11.106586 C 35.557918 11.5682 35.684282 11.934397 35.93443 12.207755 C 36.182 12.478534 36.573985 12.612635 37.105228 12.612635 C 37.515265 12.612635 37.847937 12.530111 38.103243 12.365065 C 38.361128 12.202597 38.60354 12.004026 38.825321 11.774508 L 39.81302 13.002041 C 39.500979 13.365659 39.093521 13.649332 38.593224 13.853061 C 38.090349 14.05679 37.520423 14.159944 36.880868 14.159944 Z M 36.837028 8.29564 C 36.439885 8.29564 36.125265 8.427162 35.898327 8.687625 C 35.671388 8.950668 35.557918 9.298813 35.557918 9.734638 L 35.557918 9.840371 L 38.012983 9.840371 L 38.012983 9.721744 C 38.012983 9.296234 37.917566 8.950668 37.726731 8.687625 C 37.535896 8.427162 37.239328 8.29564 36.837028 8.29564 Z M 47.289105 14.000056 L 46.623762 11.787403 L 43.518827 11.787403 L 42.850905 14.000056 L 40.798141 14.000056 L 43.864393 4.695566 L 46.368456 4.695566 L 49.396025 14.000056 Z M 45.089347 6.534286 L 45.022296 6.534286 L 43.995914 10.069889 L 46.128623 10.069889 Z M 50.32699 14.000056 L 50.32699 12.385696 L 51.526155 12.385696 L 51.526155 6.309926 L 50.32699 6.309926 L 50.32699 4.695566 L 54.752296 4.695566 L 54.752296 6.309926 L 53.553131 6.309926 L 53.553131 12.385696 L 54.752296 12.385696 L 54.752296 14.000056 Z M 50.32699 14.000056 " stroke="#8c52ff" stroke-width="0.499999" stroke-opacity="1" stroke-miterlimit="4"/></svg>